<svg xmlns="http://www.w3.org/2000/svg" width="40" height="40" viewBox="0 0 40 40"><path fill="#ff0" fill-rule="evenodd" stroke="#000" stroke-width="1.308" d="M1.77 2.597h36.46v34.806H1.77z"/><path d="M20 6.265c-7.586 0-13.735 6.15-13.735 13.735 0 7.586 6.15 13.735 13.735 13.735 7.586 0 13.735-6.15 13.735-13.735 0-7.586-6.15-13.735-13.735-13.735zm-.363 8.422c3.13 0 5.676 2.522 5.676 5.624 0 3.103-2.545 5.625-5.676 5.625-3.13 0-5.675-2.522-5.675-5.624 0-3.1 2.544-5.623 5.675-5.623z" fill="#fff" stroke="#000" stroke-width=".91249392"/><path d="M8.668 12.74l4.412 3.693c-1.49 2.292-1.282 5.388.14 7.703l-4.55 3.04c.6 1.093 2.68 3.15 3.758 3.723l3.47-4.055c2.255 1.296 5.086 1.236 7.49-.112l3.08 5.422c1.002-.394 4.21-3.062 4.807-4.442l-4.848-3.92c1.28-2.15 1.465-4.675.494-6.877l5.24-3.403c-.494-.876-2.737-3.26-4.145-4.17l-3.656 4.42c-2.22-1.57-5.336-1.807-7.874-.572l-3.19-4.723C12.1 8.98 9.628 11.06 8.667 12.74zm7.19 3.04c2.444-2.17 6.01-1.903 8.033.374 2.025 2.278 1.877 5.856-.566 8.027-2.444 2.173-6.015 1.898-8.038-.38-2.024-2.276-1.87-5.848.573-8.02z"/></svg>