<svg xmlns="http://www.w3.org/2000/svg" width="64" height="64" viewBox="0 0 64 64"><path d="M25.47 9.493c-.168 2.65 4.67 4.953 9.235 4.036 5.92-.988 6.694-6.144 1.27-7.752-4.574-1.623-10.817.767-10.504 3.715zm-20.945 8.16c-.457-5.82 4.75-11.726 13.912-14.555C29.752-.872 45.497 1.4 53.604 7.11c9.276 6.19 7.158 16.208-3.17 21.594-1.785 1.636-6.38 1.215-7.07 3.187-1.04.973-1.288 2.05-1.232 3.17 1.015 2-3.832 1.632-3.27 3.758.59 5.265-.18 10.538-.364 15.807-.492 2.185 1.164 4.574-.735 6.61-2.483 2.325-7.306 2.19-9.193-.275-2.734-1.74-8.255-3.615-6.104-6.34 3.468-1.708-2.117-3.45.43-5.08 5.06-1.392-2.392-2.304-.146-4.334 3.07-.978 2.057-2.518-.22-3.54 1.877-1.808 1.485-4.87-2.565-5.943.15-1.805 2.906-4.137-1.68-5.205-8.024-2.636-13.598-7.568-13.76-12.866z" fill="#ff0" stroke="#000" stroke-width="1.727"/></svg>