<svg xmlns="http://www.w3.org/2000/svg" height="64" width="64" viewBox="0 0 64.000002 64.000002"><path d="M29.425 1.46c-3.588.932-6.268 3.68-6.805 7.144-1.006 7.045-1.493 15.08-3.736 21.57-2.085 5.84-4.78 13.7-3.94 20.135.806 5.732 5.554 9.374 10.75 11.168 5.172 1.717 10.643 1.732 15.23-.65 5.69-3.012 8.244-8.98 8.286-16.14.033-.752-.113-2.353-.732-2.545-.956.53-1.97 1.193-3 1.87-2.33 1.55-4.683 3.03-7.258 3.588-3.164.67-6.307-.02-7.652-3.18-1.155-3.318-.455-7.63-.465-10.91.077-5.334-.694-10.127-1.457-14.494 1.472.153 2.995.11 4.163-.508 3.267-2.005 5.88-5.217 6.38-8.836.23-2.01-.562-4.15-1.603-5.48-2.203-2.437-5.27-3.275-8.16-2.732zm1.23 22.762c.725 4.964.808 10.125.594 14.735-.22 4.245.25 6.48 3.586 7.544 1.3.453 2.868.273 4.06-.057 2.766-.782 4.952-2.718 7-3.91 1.89-.99 2.604-2.08 2.156-4.11-.708-2.243-1.914-4.228-4.084-5.002-2.323-.823-4.345-.205-6.427-.034 1.868-2.193 1.95-4.933-1.073-5.68-2.496-.584-3.864-2.314-5.804-3.48-.003-.003-.005-.004-.008-.004zm14.682 11.492c1.174 1.11 1.186 3.18.185 3.936-1.286.748-2.975 1.054-4.056 2.103-.383.38-.542.7-.644 1.292-.113.654-.217.92-.505 1.278-.87.973-2.31 1.37-3.468 1.45-2.622.113-4.678-1.784-4.68-4.248.19-2.873 3.145-4.254 5.725-4.586.216 1.148-2.4 2.863-1.746 3.91.317.166.675-.26.86-.433.718-.797 1.56-1.01 2.396-1.374-.175-.203-.363-.445-.44-.684-.1-1.23.545-2.42 1.356-3.226 1.536-1.462 3.852-.55 5.015.58z" fill="#fff"/></svg>